<?xml version="1.0" encoding="UTF-8" standalone="no"?>
<!DOCTYPE svg PUBLIC "-//W3C//DTD SVG 1.1//EN"
 "http://www.w3.org/Graphics/SVG/1.1/DTD/svg11.dtd">
<!-- Generated by graphviz version 2.40.1 (20161225.0304)
 -->
<!-- Title: dependencies Pages: 1 -->
<svg width="722pt" height="284pt"
 viewBox="0.00 0.00 722.00 284.00" xmlns="http://www.w3.org/2000/svg" xmlns:xlink="http://www.w3.org/1999/xlink">
<g id="graph0" class="graph" transform="scale(1 1) rotate(0) translate(4 280)">
<title>dependencies</title>
<polygon fill="#ffffff" stroke="transparent" points="-4,4 -4,-280 718,-280 718,4 -4,4"/>
<text text-anchor="start" x="336.0091" y="-42.4" font-family="sans-serif" font-weight="bold" font-size="14.00" fill="#000000">Legend</text>
<polygon fill="#ffffb3" stroke="transparent" points="123,-10 123,-30 143,-30 143,-10 123,-10"/>
<text text-anchor="start" x="146.629" y="-15.4" font-family="sans-serif" font-size="14.00" fill="#000000"> &#160;Declarations</text>
<polygon fill="#8dd3c7" stroke="transparent" points="236,-10 236,-30 256,-30 256,-10 236,-10"/>
<text text-anchor="start" x="259.7251" y="-15.4" font-family="sans-serif" font-size="14.00" fill="#000000"> &#160;Module</text>
<polygon fill="#80b1d3" stroke="transparent" points="322,-10 322,-30 342,-30 342,-10 322,-10"/>
<text text-anchor="start" x="345.7812" y="-15.4" font-family="sans-serif" font-size="14.00" fill="#000000"> &#160;Bootstrap</text>
<polygon fill="#fdb462" stroke="transparent" points="419,-10 419,-30 439,-30 439,-10 419,-10"/>
<text text-anchor="start" x="442.6732" y="-15.4" font-family="sans-serif" font-size="14.00" fill="#000000"> &#160;Providers</text>
<polygon fill="#fb8072" stroke="transparent" points="515,-10 515,-30 535,-30 535,-10 515,-10"/>
<text text-anchor="start" x="538.7258" y="-15.4" font-family="sans-serif" font-size="14.00" fill="#000000"> &#160;Exports</text>
<g id="clust1" class="cluster">
<title>cluster_NgPaymentCardModule</title>
<polygon fill="none" stroke="#000000" stroke-dasharray="1,5" points="8,-70 8,-268 706,-268 706,-70 8,-70"/>
</g>
<g id="clust2" class="cluster">
<title>cluster_NgPaymentCardModule_declarations</title>
<polygon fill="none" stroke="#000000" points="226,-78 226,-130 698,-130 698,-78 226,-78"/>
</g>
<g id="clust7" class="cluster">
<title>cluster_NgPaymentCardModule_exports</title>
<polygon fill="none" stroke="#000000" points="269,-208 269,-260 447,-260 447,-208 269,-208"/>
</g>
<g id="clust9" class="cluster">
<title>cluster_NgPaymentCardModule_providers</title>
<polygon fill="none" stroke="#000000" points="16,-78 16,-130 218,-130 218,-78 16,-78"/>
</g>
<!-- PaymentCardComponent -->
<g id="node1" class="node">
<title>PaymentCardComponent</title>
<polygon fill="#ffffb3" stroke="#000000" points="689.5379,-122 532.4621,-122 532.4621,-86 689.5379,-86 689.5379,-122"/>
<text text-anchor="middle" x="611" y="-99.8" font-family="Times,serif" font-size="14.00" fill="#000000">PaymentCardComponent</text>
</g>
<!-- NgPaymentCardModule -->
<g id="node4" class="node">
<title>NgPaymentCardModule</title>
<polygon fill="#8dd3c7" stroke="#000000" points="434.3613,-187 431.3613,-191 410.3613,-191 407.3613,-187 281.6387,-187 281.6387,-151 434.3613,-151 434.3613,-187"/>
<text text-anchor="middle" x="358" y="-164.8" font-family="Times,serif" font-size="14.00" fill="#000000">NgPaymentCardModule</text>
</g>
<!-- PaymentCardComponent&#45;&gt;NgPaymentCardModule -->
<g id="edge1" class="edge">
<title>PaymentCardComponent&#45;&gt;NgPaymentCardModule</title>
<path fill="none" stroke="#000000" d="M611,-122.1061C611,-141.3391 611,-169 611,-169 611,-169 444.5949,-169 444.5949,-169"/>
<polygon fill="#000000" stroke="#000000" points="444.595,-165.5001 434.5949,-169 444.5949,-172.5001 444.595,-165.5001"/>
</g>
<!-- PaymentCardNumberPipe -->
<g id="node2" class="node">
<title>PaymentCardNumberPipe</title>
<polygon fill="#ffffb3" stroke="#000000" points="514.465,-122 351.535,-122 351.535,-86 514.465,-86 514.465,-122"/>
<text text-anchor="middle" x="433" y="-99.8" font-family="Times,serif" font-size="14.00" fill="#000000">PaymentCardNumberPipe</text>
</g>
<!-- PaymentCardNumberPipe&#45;&gt;NgPaymentCardModule -->
<g id="edge2" class="edge">
<title>PaymentCardNumberPipe&#45;&gt;NgPaymentCardModule</title>
<path fill="none" stroke="#000000" d="M392.9741,-122.1061C392.9741,-122.1061 392.9741,-140.991 392.9741,-140.991"/>
<polygon fill="#000000" stroke="#000000" points="389.4741,-140.9909 392.9741,-150.991 396.4741,-140.991 389.4741,-140.9909"/>
</g>
<!-- ValidThruPipe -->
<g id="node3" class="node">
<title>ValidThruPipe</title>
<polygon fill="#ffffb3" stroke="#000000" points="333.7036,-122 234.2964,-122 234.2964,-86 333.7036,-86 333.7036,-122"/>
<text text-anchor="middle" x="284" y="-99.8" font-family="Times,serif" font-size="14.00" fill="#000000">ValidThruPipe</text>
</g>
<!-- ValidThruPipe&#45;&gt;NgPaymentCardModule -->
<g id="edge3" class="edge">
<title>ValidThruPipe&#45;&gt;NgPaymentCardModule</title>
<path fill="none" stroke="#000000" d="M307.5856,-122.1061C307.5856,-122.1061 307.5856,-140.991 307.5856,-140.991"/>
<polygon fill="#000000" stroke="#000000" points="304.0856,-140.9909 307.5856,-150.991 311.0856,-140.991 304.0856,-140.9909"/>
</g>
<!-- PaymentCardComponent  -->
<g id="node5" class="node">
<title>PaymentCardComponent </title>
<polygon fill="#fb8072" stroke="#000000" points="438.5372,-252 277.4628,-252 277.4628,-216 438.5372,-216 438.5372,-252"/>
<text text-anchor="middle" x="358" y="-229.8" font-family="Times,serif" font-size="14.00" fill="#000000">PaymentCardComponent </text>
</g>
<!-- NgPaymentCardModule&#45;&gt;PaymentCardComponent  -->
<g id="edge4" class="edge">
<title>NgPaymentCardModule&#45;&gt;PaymentCardComponent </title>
<path fill="none" stroke="#000000" stroke-dasharray="5,2" d="M358,-187.1061C358,-187.1061 358,-205.991 358,-205.991"/>
<polygon fill="#000000" stroke="#000000" points="354.5001,-205.9909 358,-215.991 361.5001,-205.991 354.5001,-205.9909"/>
</g>
<!-- PaymentCardService -->
<g id="node6" class="node">
<title>PaymentCardService</title>
<ellipse fill="#fdb462" stroke="#000000" cx="117" cy="-104" rx="92.6132" ry="18"/>
<text text-anchor="middle" x="117" y="-99.8" font-family="Times,serif" font-size="14.00" fill="#000000">PaymentCardService</text>
</g>
<!-- PaymentCardService&#45;&gt;NgPaymentCardModule -->
<g id="edge5" class="edge">
<title>PaymentCardService&#45;&gt;NgPaymentCardModule</title>
<path fill="none" stroke="#000000" d="M117,-122.1061C117,-141.3391 117,-169 117,-169 117,-169 271.415,-169 271.415,-169"/>
<polygon fill="#000000" stroke="#000000" points="271.415,-172.5001 281.415,-169 271.4149,-165.5001 271.415,-172.5001"/>
</g>
</g>
</svg>
